HIERARCHY
ROOT Hips
{
	OFFSET 0.000000 0.000000 0.000000 
	CHANNELS 6 Xposition Yposition Zposition Zrotation Yrotation Xrotation
	JOINT LeftUpLeg
	{
		OFFSET 1.363060 -1.794630 0.839290 
		CHANNELS 3 Zrotation Yrotation Xrotation
		JOINT LeftLeg
		{
			OFFSET 2.448110 -6.726130 0.000000 
			CHANNELS 3 Zrotation Yrotation Xrotation
			JOINT LeftFoot
			{
				OFFSET 2.562200 -7.039590 0.000000 
				CHANNELS 3 Zrotation Yrotation Xrotation
				JOINT LeftToeBase
				{
					OFFSET 0.157640 -0.433110 2.322550 
					CHANNELS 3 Zrotation Yrotation Xrotation
					End Site
					{
						OFFSET 0.000000 0.000000 0.000000 
					}
				}
			}
		}
	}
	JOINT RightUpLeg
	{
		OFFSET -1.305520 -1.794630 0.839290 
		CHANNELS 3 Zrotation Yrotation Xrotation
		JOINT RightLeg
		{
			OFFSET -2.542530 -6.985550 0.000000 
			CHANNELS 3 Zrotation Yrotation Xrotation
			JOINT RightFoot
			{
				OFFSET -2.568260 -7.056230 0.000000 
				CHANNELS 3 Zrotation Yrotation Xrotation
				JOINT RightToeBase
				{
					OFFSET -0.164730 -0.452590 2.363150 
					CHANNELS 3 Zrotation Yrotation Xrotation
					End Site
					{
						OFFSET 0.000000 0.000000 0.000000 
					}
				}
			}
		}
	}
	JOINT Spine
	{
		OFFSET 0.028270 2.035590 -0.193380 
		CHANNELS 3 Zrotation Yrotation Xrotation
		JOINT Spine1
		{
			OFFSET 0.056720 2.048850 -0.042750 
			CHANNELS 3 Zrotation Yrotation Xrotation
			JOINT Neck1
			{
				OFFSET -0.054170 1.746240 0.172020 
				CHANNELS 3 Zrotation Yrotation Xrotation
				JOINT Head
				{
					OFFSET 0.104070 1.761360 -0.123970 
					CHANNELS 3 Zrotation Yrotation Xrotation
					End Site
					{
						OFFSET 0.000000 0.000000 0.000000 
					}
				}
			}
			JOINT LeftArm
			{
				OFFSET 3.362410 1.200890 -0.311210 
				CHANNELS 3 Zrotation Yrotation Xrotation
				JOINT LeftForeArm
				{
					OFFSET 4.983000 -0.000000 -0.000000 
					CHANNELS 3 Zrotation Yrotation Xrotation
					JOINT LeftHand
					{
						OFFSET 3.483560 -0.000000 -0.000000 
						CHANNELS 3 Zrotation Yrotation Xrotation
						JOINT LeftHandIndex1
						{
							OFFSET 0.715260 -0.000000 -0.000000 
							CHANNELS 3 Zrotation Yrotation Xrotation
							End Site
							{
								OFFSET 0.000000 0.000000 0.000000 
							}
						}
					}
				}
			}
			JOINT RightArm
			{
				OFFSET -3.136600 1.374050 -0.404650 
				CHANNELS 3 Zrotation Yrotation Xrotation
				JOINT RightForeArm
				{
					OFFSET -5.241900 -0.000000 -0.000000 
					CHANNELS 3 Zrotation Yrotation Xrotation
					JOINT RightHand
					{
						OFFSET -3.444170 -0.000000 -0.000000 
						CHANNELS 3 Zrotation Yrotation Xrotation
						JOINT RightHandIndex1
						{
							OFFSET -0.622530 -0.000000 -0.000000 
							CHANNELS 3 Zrotation Yrotation Xrotation
							End Site
							{
								OFFSET 0.000000 0.000000 0.000000 
							}
						}
					}
				}
			}
		}
	}
}
MOTION
Frames: 13
Frame Time: 0.041667
3.558261 17.809657 0.465878 7.838296 -38.603082 -2.442205 -24.964055 -6.265302 -6.067858 0.765804 8.340467 26.184782 0.473915 0.459841 -2.366037 0.004200 -0.416300 -1.143800 16.347521 8.704541 -33.824703 -6.154837 -15.471698 47.389676 0.325295 -3.619210 3.659226 -0.014000 0.764200 -2.100200 0.774962 -0.848655 -1.973784 4.446398 -0.177344 -4.021192 3.003844 -1.811988 14.021139 2.914300 -1.614900 9.521100 -80.675459 -3.717051 17.339888 9.145518 -17.592719 -1.756488 -1.502992 -3.502407 12.302296 -7.125000 0.000000 0.000000 81.101449 -9.326379 3.149156 -12.985331 20.628609 -3.331799 1.092093 -0.538802 7.154711 7.125000 0.000000 0.000000 
3.418570 17.805121 0.656188 8.254166 -38.231276 -2.402563 -25.397641 -5.975336 -5.108251 0.613517 8.009368 25.287589 0.501181 0.336627 -2.283234 0.003600 -0.387100 -1.063700 15.678614 8.888646 -34.392766 -5.374664 -14.816469 44.341657 1.044219 -6.613038 3.159930 -0.163400 2.604700 -7.180100 0.736367 -0.959534 -1.986907 4.472378 -0.246834 -3.819336 2.812631 -1.823106 14.181383 2.617800 -1.560700 9.761800 -80.499056 -4.191880 18.351669 9.423769 -18.077470 -1.890081 -1.483449 -3.495624 11.770285 -7.125000 0.000000 0.000000 81.336458 -8.994859 2.094328 -12.761334 20.236427 -3.198202 1.110470 -0.536082 8.044952 7.125000 0.000000 0.000000 
3.280322 17.792337 0.849282 9.533760 -37.757487 -3.026539 -26.568211 -5.143516 -4.108754 0.467849 7.640804 24.325611 0.610228 -0.088109 -2.281622 0.014800 -0.786500 -2.161600 14.166054 8.829632 -34.741918 -4.558820 -14.060859 41.109564 1.360970 -8.000771 3.863377 -0.239100 3.146900 -8.688000 0.614359 -1.184824 -2.006626 4.646378 -0.380148 -3.549273 2.915900 -2.469759 14.644975 2.444400 -1.794000 10.582900 -80.296916 -4.599573 18.950473 9.800470 -18.709411 -2.062490 -1.452290 -3.536807 11.535447 -7.125000 0.000000 0.000000 81.549555 -8.576790 1.310063 -12.578416 19.907214 -3.100989 1.053481 -0.589744 8.933997 7.125000 0.000000 0.000000 
3.137126 17.786152 1.044746 10.252172 -37.431753 -3.396588 -27.200713 -4.319350 -2.971520 0.319676 7.255838 23.312979 0.659705 -0.282691 -2.359432 0.050800 -1.454400 -4.000000 13.294088 8.556284 -34.865816 -3.726787 -13.183761 37.687875 1.484494 -8.751925 5.377077 -0.251100 3.224500 -8.904500 0.581200 -1.434137 -2.033523 4.918193 -0.510041 -3.559935 3.052734 -2.519131 14.633260 2.493800 -1.796800 10.702600 -80.230767 -4.627580 19.379420 10.205597 -19.408418 -2.265898 -1.436554 -3.514398 11.240418 -7.125000 0.000000 0.000000 81.526845 -8.551653 1.288678 -12.448197 19.718174 -3.048545 0.985891 -0.662050 9.564512 7.125000 0.000000 0.000000 
2.990940 17.786152 1.232067 10.109322 -37.302205 -3.099509 -27.029617 -4.000901 -1.871849 0.143529 6.844704 22.182941 0.598939 -0.088011 -2.225437 0.065200 -1.647600 -4.532800 13.138291 8.757344 -34.950039 -2.929596 -12.221713 34.156623 1.732180 -10.010811 6.675665 -0.162300 2.595900 -7.155800 0.594234 -1.487171 -2.010611 5.026807 -0.524115 -3.823483 3.088215 -1.831877 13.589165 2.808100 -1.533100 9.344600 -80.057153 -4.756382 20.304791 10.503425 -19.947017 -2.425323 -1.414119 -3.501867 10.798296 -7.125000 0.000000 0.000000 81.627641 -8.658074 1.155546 -12.354757 19.617170 -3.011429 0.988372 -0.668198 9.791608 7.125000 0.000000 0.000000 
2.842279 17.774193 1.417634 10.045742 -37.217930 -2.845803 -26.869403 -3.620101 -0.892840 -0.012837 6.455210 21.131423 0.611808 -0.175938 -1.912020 0.061500 -1.600400 -4.402400 12.732964 9.422403 -34.715600 -2.181045 -11.166686 30.498820 2.073545 -11.598310 7.697484 -0.033000 1.171800 -3.221600 0.599099 -1.456821 -2.017350 5.142095 -0.527992 -3.751179 3.317434 -2.000409 13.579274 2.942800 -1.601300 9.459700 -79.841087 -5.225488 21.309120 10.738544 -20.319597 -2.538313 -1.394706 -3.537093 10.460603 -7.125000 0.000000 0.000000 81.790523 -8.388653 0.415947 -12.167089 19.296637 -2.906931 1.006361 -0.698548 10.542092 7.125000 0.000000 0.000000 
2.687330 17.765018 1.610006 10.593247 -36.861487 -3.143745 -27.198168 -2.880482 0.163619 -0.117840 6.122215 20.291462 0.809766 -0.937044 -1.700069 0.059400 -1.572000 -4.324300 11.758723 9.710765 -34.058852 -1.483700 -10.011427 26.724546 2.381561 -12.997374 8.569028 -0.001500 -0.249500 0.685500 0.572888 -1.643919 -2.029553 5.386568 -0.622364 -3.790515 3.395782 -1.994535 13.472181 2.964000 -1.582000 9.350300 -79.665107 -5.404595 21.974408 11.019950 -20.799358 -2.691642 -1.350625 -3.542394 9.936210 -7.125000 0.000000 0.000000 81.888230 -8.417373 0.207752 -12.074269 19.132311 -2.853610 1.024778 -0.670750 11.289525 7.125000 0.000000 0.000000 
2.532896 17.752543 1.807224 10.854152 -36.513249 -3.291313 -27.246987 -2.005979 1.211181 -0.211656 5.795661 19.477445 1.001416 -1.665943 -1.622451 0.104000 -2.079200 -5.724500 11.119087 9.833234 -33.419284 -0.862416 -8.829822 23.057497 2.666549 -14.094996 8.778679 -0.026800 -1.056100 2.903100 0.561377 -1.781230 -2.029610 5.418445 -0.741971 -3.291519 3.280680 -2.750067 14.745491 2.576500 -1.873900 10.889400 -79.515244 -5.781343 22.421455 11.376802 -21.350941 -2.874400 -1.374410 -3.516628 9.383613 -7.125000 0.000000 0.000000 82.012260 -8.248422 0.319679 -12.081660 19.077599 -2.837417 1.059069 -0.648025 11.537002 7.125000 0.000000 0.000000 
2.381143 17.732956 1.998564 10.581911 -36.230414 -3.034657 -26.806301 -1.703802 2.343079 -0.342822 5.418190 18.485514 1.101397 -2.103821 -1.126931 0.089800 -1.932700 -5.319800 10.993459 10.064327 -32.907653 -0.347540 -7.691345 19.653676 3.006630 -15.238117 8.507641 -0.001400 -0.243400 0.668600 0.588350 -1.896464 -1.970384 5.470972 -0.815364 -3.200339 3.289047 -2.682873 14.030987 2.691700 -1.857700 10.216000 -79.419123 -6.117523 22.855344 11.649837 -21.793548 -3.015326 -1.425229 -3.499316 9.074739 -7.125000 0.000000 0.000000 82.226703 -7.989627 -0.235575 -11.997231 18.951413 -2.800165 1.031980 -0.681194 12.132274 7.125000 0.000000 0.000000 
2.223926 17.713471 2.188668 10.356235 -36.060664 -2.831381 -26.342505 -1.308436 3.514774 -0.470348 5.023346 17.463345 1.223719 -2.668402 -0.373914 0.054000 -1.499500 -4.124300 10.750225 10.679346 -32.208053 0.069402 -6.591944 16.489664 3.380767 -16.335262 7.771113 -0.008400 0.593500 -1.631000 0.641784 -2.037040 -1.948961 5.695046 -0.879259 -3.360294 3.308449 -2.361644 13.082784 2.887500 -1.734900 9.242300 -79.339682 -6.219240 23.264453 11.907194 -22.228770 -3.160076 -1.453558 -3.469697 8.707898 -7.125000 0.000000 0.000000 82.232166 -8.061351 -0.265939 -11.936653 18.885755 -2.780607 1.009463 -0.675478 12.198146 7.125000 0.000000 0.000000 
2.061864 17.694193 2.387226 10.622039 -35.696073 -2.940239 -26.321600 -0.826769 4.801070 -0.562746 4.670252 16.593155 1.390196 -3.435297 0.288691 0.048000 -1.414500 -3.890100 9.883519 11.318717 -31.351822 0.408464 -5.522675 13.531683 3.689892 -16.943798 6.256527 -0.000600 -0.162800 0.447400 0.678633 -2.342112 -1.995397 6.029026 -1.025888 -3.436357 3.198959 -2.166363 13.284559 2.843700 -1.666200 9.331300 -79.324550 -6.135425 23.227615 12.223511 -22.739746 -3.333854 -1.469019 -3.467386 8.314568 -7.125000 0.000000 0.000000 82.122329 -8.210809 -0.242029 -11.886874 18.813676 -2.758150 1.003245 -0.675172 12.171874 7.125000 0.000000 0.000000 
1.900317 17.673368 2.587948 10.960065 -35.159081 -3.054507 -26.389335 -0.598555 6.028299 -0.642758 4.358866 15.820500 1.524019 -4.065891 0.714919 0.118600 -2.220000 -6.113900 9.057422 11.546016 -30.637426 0.655091 -4.574536 10.932277 3.930436 -17.460324 5.201493 -0.001700 0.269800 -0.741400 0.649656 -2.520547 -1.990443 6.131935 -1.128848 -3.298358 3.213693 -2.314931 13.390624 2.801300 -1.722800 9.455400 -79.215579 -6.333625 23.556993 12.549154 -23.241829 -3.506117 -1.459516 -3.515574 7.893389 -7.125000 0.000000 0.000000 82.280055 -8.248902 -0.632760 -11.866344 18.786654 -2.752091 0.974240 -0.682928 12.351009 7.125000 0.000000 0.000000 
1.738357 17.663677 2.777434 10.878557 -34.713698 -2.829998 -26.049258 -0.751602 6.692945 -0.708295 4.158270 15.300816 1.671965 -4.719271 1.110448 0.350900 -3.806200 -10.532100 8.654641 11.953890 -29.975469 0.823711 -3.760941 8.711405 4.240082 -18.363366 4.618871 -0.076600 1.785900 -4.914500 0.633143 -2.591106 -1.968641 6.074635 -1.182710 -3.119202 3.325209 -2.605768 13.309311 2.825200 -1.837200 9.451600 -79.055981 -6.694428 24.047175 12.783163 -23.589913 -3.627880 -1.440448 -3.572110 7.305898 -7.125000 0.000000 0.000000 82.547539 -8.365727 -0.202332 -11.985045 18.944733 -2.799172 1.015626 -0.564890 11.690233 7.125000 0.000000 0.000000 
